<svg xmlns="http://www.w3.org/2000/svg" height="80" width="80" viewBox="0 0 80 80"><rect ry="3" rx="3" y="1" x="1" height="78" width="78" fill="#fff" stroke="#1a1a1a" stroke-width="2" stroke-linecap="round" stroke-linejoin="round"/><path d="M5 5h70v70H5z" fill="#2ca089" stroke="#1a1a1a" stroke-width="2" stroke-linecap="round" stroke-linejoin="round"/><path d="M12.8 6L6 12.8v6.8L19.6 6zm13.6 0L6 26.4v6.8L33.2 6zM40 6L6 40v6.8L46.8 6zm13.6 0L6 53.6v6.8L60.4 6zm13.6 0L6 67.2V74L74 6zm6.8 6.8L12.8 74h6.8L74 19.6zm0 13.6L26.4 74h6.8L74 33.2zM74 40L40 74h6.8L74 46.8zm0 13.6L53.6 74h6.8L74 60.4zm0 13.6L67.2 74H74z" fill="#37c8ab" fill-rule="evenodd"/></svg>