<svg xmlns="http://www.w3.org/2000/svg" width="16" height="16" viewBox="0 0 16 16">
  <rect width="15" height="15" x=".5" y=".5" ry="1.5" rx="1.5" fill="#fff" stroke="#1a1a1a" stroke-linecap="round" stroke-linejoin="round" />
  <path d="M2.5 2.5h11v11h-11z" fill="#fc0" stroke="#1a1a1a" stroke-linecap="round" stroke-linejoin="round" />
  <rect rx=".5" width="2" height="1.5" x="7" y="11" ry=".5" fill="#a40" />
  <path d="M8 3.5c-1.65 0-3 1.35-3 3 0 1.25 0 1.25 1 .75s1-.5 1-.75c0-.55.45-1 1-1 .5 0 1 .45 1 1s-.5 1-1 1c-.55 0-1 .45-1 1V10c0 .25.25.5.5.5h1c.25 0 .5-.25.5-.5v-.675c1.175-.425 2-1.55 2-2.825 0-1.65-1.375-3-3-3z" fill="#a40" />
</svg>
