<svg xmlns="http://www.w3.org/2000/svg" viewBox="0 0 96 96">
  <rect width="60" height="60" x="2" y="2" fill="#fff" stroke="#1a1a1a" stroke-width="4" rx="6" ry="6" stroke-linecap="round" stroke-linejoin="round"/>
  <path fill="#2ca089" stroke="#1a1a1a" stroke-width="4" d="M10 10h44v44H10z" stroke-linecap="round" stroke-linejoin="round"/>
  <path fill="#37c8ab" fill-rule="evenodd" d="M12 24l12-12h4L12 28zm0 8l20-20h4L12 36zm0 8l28-28h4L12 44zm0 8l36-36h4L12 52zm4 4l36-36v4L20 52zm-4-36l4-4h4l-8 8zm40 12L28 52h-4l28-28z"/>
  <rect width="60" height="60" x="34" y="34" fill="#fff" stroke="#1a1a1a" stroke-width="4" ry="6" stroke-linejoin="round" stroke-linecap="round" rx="6"/>
  <path fill="#fc0" stroke="#1a1a1a" stroke-width="4" d="M42 42h44v44H42z" stroke-linejoin="round" stroke-linecap="round"/>
  <rect width="8" height="6" x="60" y="76" fill="#a40" ry="2"/>
  <path fill="#a40" d="M64 46c-6.6 0-12 5.4-12 12 0 5 0 5 4 3s4-2 4-3c0-2.2 1.8-4 4-4 2 0 4 1.8 4 4s-2 4-4 4c-2.2 0-4 1.8-4 4v6c0 1 1 2 2 2h4c1 0 2-1 2-2v-2.7c4.7-1.7 8-6.2 8-11.3 0-6.6-5.5-12-12-12z"/>
</svg>
